M48
INCH,TZ
T1C0.025
T2C0.032
T3C0.040
T4C0.045
T5C0.091
%
G90
G05
T1
X35150Y-18750
X35970Y-22385
X37525Y-21750
X39140Y-10387
X39457Y-11814
X39600Y-20225
X39635Y-18127
X39750Y-13850
X39850Y-20900
X40974Y-13300
X42782Y-18724
X43016Y-18150
X43202Y-15605
X43602Y-18543
X43984Y-23094
X44020Y-15989
X44323Y-13708
X44425Y-20025
X44440Y-12589
X44449Y-19402
X44619Y-23563
X44864Y-18087
X44947Y-12643
X45696Y-14067
X45724Y-11867
X46086Y-16265
X46248Y-20565
X46561Y-13487
X46742Y-16377
X46778Y-16964
X46850Y-20025
X46911Y-12076
X46957Y-11175
X46982Y-20842
X47196Y-14693
X47270Y-12916
X47317Y-13390
X47473Y-18011
X47550Y-21700
X47890Y-13803
X47977Y-18144
X48078Y-16341
X48126Y-18760
X48203Y-14112
X48284Y-15600
X48611Y-15905
X48845Y-14004
X48972Y-15101
X49669Y-18442
X49980Y-11992
X50173Y-13536
X50500Y-12825
X50625Y-13475
X50705Y-11409
X50861Y-17922
X51125Y-13975
X51270Y-22847
X51322Y-15276
X51485Y-9204
X51617Y-15845
X51763Y-15351
X52600Y-8600
X52630Y-17606
X52972Y-10680
X53199Y-15287
X53775Y-10950
X53800Y-14350
X55165Y-9715
X59500Y-24850
X61442Y-9934
X61558Y-18627
T2
X34365Y-23240
X34365Y-24240
X34410Y-20575
X34410Y-21575
X34495Y-11875
X34495Y-12875
X34495Y-13875
X34495Y-14875
X34495Y-16320
X34495Y-17320
X34495Y-18320
X34495Y-19320
X36900Y-22700
X36900Y-23700
X36900Y-24700
X37040Y-21055
X38040Y-21055
X38800Y-22700
X38800Y-23700
X38800Y-24700
X39040Y-21055
X40250Y-7000
X40700Y-22700
X40700Y-23700
X40700Y-24700
X41250Y-7000
X42600Y-7000
X42700Y-22700
X42700Y-23700
X42700Y-24700
X43600Y-7000
X44600Y-7000
X44656Y-11594
X45364Y-10886
X45600Y-7000
X46315Y-22855
X46315Y-23642
X47315Y-22855
X47315Y-23642
X49653Y-11173
X51067Y-12587
X51100Y-24900
X52100Y-24900
X53150Y-16810
X54500Y-8500
X54500Y-9500
X54500Y-10500
X54500Y-11500
X54500Y-12500
X54500Y-13500
X54500Y-14500
X54500Y-15500
X54500Y-16750
X54500Y-17750
X54500Y-18750
X54500Y-19750
X54500Y-20750
X54500Y-21750
X54500Y-22750
X54500Y-23750
X55500Y-24900
X55750Y-7000
X55750Y-12500
X55750Y-14000
X55750Y-15500
X55750Y-21250
X55750Y-22500
X55750Y-23750
X56500Y-24900
X56750Y-7000
X56750Y-12500
X56750Y-14000
X56750Y-15500
X56750Y-21250
X56750Y-22500
X56750Y-23750
X57250Y-8500
X57250Y-16750
X57500Y-24900
X57750Y-7000
X58250Y-8500
X58250Y-16750
X58500Y-24900
X58750Y-7000
X59500Y-8500
X59500Y-9500
X59500Y-10500
X59500Y-11500
X59500Y-12500
X59500Y-13500
X59500Y-14500
X59500Y-15500
X59500Y-16750
X59500Y-17750
X59500Y-18750
X59500Y-19750
X59500Y-20750
X59500Y-21750
X59500Y-22750
X59500Y-23750
X60900Y-8500
X60900Y-9500
X60900Y-10500
X60900Y-11500
X60900Y-12500
X60900Y-13500
X60900Y-14500
X60900Y-15500
X60900Y-16750
X60900Y-17750
X60900Y-18750
X60900Y-19750
X60900Y-20750
X60900Y-21750
X60900Y-22750
X60900Y-23750
X61900Y-7000
X61900Y-24900
X62150Y-12500
X62150Y-14000
X62150Y-15500
X62150Y-21250
X62150Y-22500
X62150Y-23750
X62900Y-7000
X62900Y-24900
X63150Y-12500
X63150Y-14000
X63150Y-15500
X63150Y-21250
X63150Y-22500
X63150Y-23750
X63650Y-16750
X63700Y-8500
X63900Y-7000
X63900Y-24900
X64650Y-16750
X64700Y-8500
X64900Y-7000
X64900Y-24900
X65900Y-8500
X65900Y-9500
X65900Y-10500
X65900Y-11500
X65900Y-12500
X65900Y-13500
X65900Y-14500
X65900Y-15500
X65900Y-16750
X65900Y-17750
X65900Y-18750
X65900Y-19750
X65900Y-20750
X65900Y-21750
X65900Y-22750
X65900Y-23750
T3
X35970Y-12400
X35970Y-13400
X35970Y-14400
X35970Y-16820
X35970Y-17820
X35970Y-18820
X36760Y-7820
X36760Y-9820
X37870Y-11880
X37870Y-12880
X37870Y-13880
X37870Y-14880
X37870Y-15880
X37870Y-16880
X37870Y-17880
X37870Y-18880
X38870Y-11880
X38870Y-12880
X38870Y-13880
X38870Y-14880
X38870Y-15880
X38870Y-16880
X38870Y-17880
X38870Y-18880
X40500Y-9100
X41500Y-9100
X42500Y-9100
X44600Y-8400
X44600Y-9400
X45600Y-8400
X45600Y-9400
X47100Y-7000
X47100Y-8000
X48100Y-7000
X48100Y-8000
X49100Y-7000
X49100Y-8000
X50100Y-7000
X50100Y-8000
X51100Y-7000
X51100Y-8000
X51795Y-18515
X51795Y-19515
X51795Y-20515
X52100Y-7000
X52100Y-8000
X52795Y-18515
X52795Y-19515
X52795Y-20515
X53100Y-7000
X53100Y-8000
T4
X40600Y-19480
X40600Y-21280
X43350Y-19480
X43400Y-21280
T5
X44453Y-24705
X49177Y-24705
T0
M30
