G04 (created by PCBNEW-RS274X (2012-01-19 BZR 3256)-stable) date 5/05/2012 5:35:00 PM*
G01*
G70*
G90*
%MOIN*%
G04 Gerber Fmt 3.4, Leading zero omitted, Abs format*
%FSLAX34Y34*%
G04 APERTURE LIST*
%ADD10C,0.006000*%
%ADD11C,0.060000*%
%ADD12C,0.106300*%
%ADD13R,0.027600X0.039400*%
%ADD14C,0.070000*%
%ADD15R,0.070000X0.070000*%
%ADD16C,0.009800*%
%ADD17R,0.060000X0.060000*%
%ADD18R,0.055000X0.035000*%
%ADD19R,0.035000X0.055000*%
%ADD20R,0.055000X0.055000*%
%ADD21C,0.055000*%
%ADD22C,0.100000*%
%ADD23R,0.065000X0.065000*%
%ADD24C,0.065000*%
%ADD25C,0.035000*%
%ADD26C,0.029600*%
%ADD27C,0.008000*%
%ADD28C,0.019700*%
%ADD29C,0.029500*%
%ADD30C,0.059100*%
G04 APERTURE END LIST*
G54D10*
G54D11*
X47315Y-22855D03*
X46315Y-22855D03*
X46315Y-23642D03*
X47315Y-23642D03*
G54D12*
X49177Y-24705D03*
X44453Y-24705D03*
G54D13*
X52050Y-23950D03*
X51675Y-22950D03*
X52425Y-22950D03*
G54D14*
X35970Y-12400D03*
X35970Y-13400D03*
G54D15*
X35970Y-14400D03*
G54D14*
X35970Y-16820D03*
X35970Y-17820D03*
G54D15*
X35970Y-18820D03*
G54D10*
G36*
X48002Y-17880D02*
X47578Y-17456D01*
X47648Y-17386D01*
X48072Y-17810D01*
X48002Y-17880D01*
X48002Y-17880D01*
G37*
G54D16*
X47788Y-17317D02*
X48142Y-17671D01*
X47927Y-17177D02*
X48281Y-17531D01*
X48066Y-17038D02*
X48420Y-17392D01*
X48206Y-16899D02*
X48560Y-17253D01*
X48344Y-16760D02*
X48698Y-17114D01*
X48484Y-16621D02*
X48838Y-16975D01*
X48623Y-16481D02*
X48977Y-16835D01*
X48762Y-16342D02*
X49116Y-16696D01*
X48901Y-16203D02*
X49255Y-16557D01*
X49041Y-16064D02*
X49395Y-16418D01*
X49179Y-15925D02*
X49533Y-16279D01*
X49319Y-15786D02*
X49673Y-16140D01*
X49458Y-15646D02*
X49812Y-16000D01*
X49597Y-15507D02*
X49951Y-15861D01*
X49737Y-15368D02*
X50091Y-15722D01*
X49781Y-14496D02*
X50135Y-14142D01*
X49642Y-14357D02*
X49996Y-14003D01*
X49502Y-14218D02*
X49856Y-13864D01*
X49363Y-14078D02*
X49717Y-13724D01*
X49224Y-13939D02*
X49578Y-13585D01*
X49085Y-13801D02*
X49439Y-13447D01*
X48946Y-13661D02*
X49300Y-13307D01*
X48807Y-13522D02*
X49161Y-13168D01*
X48667Y-13383D02*
X49021Y-13029D01*
X48528Y-13243D02*
X48882Y-12889D01*
X48389Y-13104D02*
X48743Y-12750D01*
X48250Y-12965D02*
X48604Y-12611D01*
X48111Y-12826D02*
X48465Y-12472D01*
X47972Y-12687D02*
X48326Y-12333D01*
X47832Y-12548D02*
X48186Y-12194D01*
X47693Y-12408D02*
X48047Y-12054D01*
X46423Y-12054D02*
X46777Y-12408D01*
X46284Y-12194D02*
X46638Y-12548D01*
X46144Y-12333D02*
X46498Y-12687D01*
X46005Y-12472D02*
X46359Y-12826D01*
X45866Y-12611D02*
X46220Y-12965D01*
X45727Y-12750D02*
X46081Y-13104D01*
X45588Y-12889D02*
X45942Y-13243D01*
X45449Y-13029D02*
X45803Y-13383D01*
X45309Y-13168D02*
X45663Y-13522D01*
X45170Y-13307D02*
X45524Y-13661D01*
X45031Y-13447D02*
X45385Y-13801D01*
X44892Y-13585D02*
X45246Y-13939D01*
X44753Y-13724D02*
X45107Y-14078D01*
X44614Y-13864D02*
X44968Y-14218D01*
X44474Y-14003D02*
X44828Y-14357D01*
X44335Y-14142D02*
X44689Y-14496D01*
X44379Y-15722D02*
X44733Y-15368D01*
X44519Y-15861D02*
X44873Y-15507D01*
X44797Y-16140D02*
X45151Y-15786D01*
X44653Y-16005D02*
X45007Y-15651D01*
X44937Y-16279D02*
X45291Y-15925D01*
X45075Y-16418D02*
X45429Y-16064D01*
X45215Y-16557D02*
X45569Y-16203D01*
X45354Y-16696D02*
X45708Y-16342D01*
X45493Y-16835D02*
X45847Y-16481D01*
X45632Y-16975D02*
X45986Y-16621D01*
X45770Y-17112D02*
X46124Y-16758D01*
X45909Y-17251D02*
X46263Y-16897D01*
X46048Y-17390D02*
X46402Y-17036D01*
X46188Y-17530D02*
X46542Y-17176D01*
X46326Y-17668D02*
X46680Y-17314D01*
X46465Y-17808D02*
X46819Y-17454D01*
G54D14*
X42500Y-09100D03*
X41500Y-09100D03*
G54D15*
X40500Y-09100D03*
G54D17*
X59500Y-15500D03*
G54D11*
X59500Y-14500D03*
X59500Y-13500D03*
X59500Y-12500D03*
X59500Y-11500D03*
X59500Y-10500D03*
G54D17*
X59500Y-09500D03*
G54D11*
X59500Y-08500D03*
X54500Y-08500D03*
X54500Y-09500D03*
X54500Y-10500D03*
X54500Y-11500D03*
X54500Y-12500D03*
X54500Y-13500D03*
X54500Y-14500D03*
X54500Y-15500D03*
G54D17*
X65900Y-15500D03*
G54D11*
X65900Y-14500D03*
X65900Y-13500D03*
X65900Y-12500D03*
X65900Y-11500D03*
X65900Y-10500D03*
G54D17*
X65900Y-09500D03*
G54D11*
X65900Y-08500D03*
X60900Y-08500D03*
X60900Y-09500D03*
X60900Y-10500D03*
X60900Y-11500D03*
X60900Y-12500D03*
X60900Y-13500D03*
X60900Y-14500D03*
X60900Y-15500D03*
G54D17*
X59500Y-23750D03*
G54D11*
X59500Y-22750D03*
X59500Y-21750D03*
X59500Y-20750D03*
X59500Y-19750D03*
X59500Y-18750D03*
G54D17*
X59500Y-17750D03*
G54D11*
X59500Y-16750D03*
X54500Y-16750D03*
X54500Y-17750D03*
X54500Y-18750D03*
X54500Y-19750D03*
X54500Y-20750D03*
X54500Y-21750D03*
X54500Y-22750D03*
X54500Y-23750D03*
G54D17*
X65900Y-23750D03*
G54D11*
X65900Y-22750D03*
X65900Y-21750D03*
X65900Y-20750D03*
X65900Y-19750D03*
X65900Y-18750D03*
G54D17*
X65900Y-17750D03*
G54D11*
X65900Y-16750D03*
X60900Y-16750D03*
X60900Y-17750D03*
X60900Y-18750D03*
X60900Y-19750D03*
X60900Y-20750D03*
X60900Y-21750D03*
X60900Y-22750D03*
X60900Y-23750D03*
G54D18*
X55705Y-10495D03*
X55705Y-09745D03*
X42000Y-10925D03*
X42000Y-11675D03*
X62000Y-10575D03*
X62000Y-09825D03*
X62100Y-19375D03*
X62100Y-18625D03*
G54D19*
X36080Y-20570D03*
X35330Y-20570D03*
X35950Y-24265D03*
X35200Y-24265D03*
X38390Y-10935D03*
X39140Y-10935D03*
X37465Y-19755D03*
X38215Y-19755D03*
G54D18*
X48900Y-19775D03*
X48900Y-19025D03*
X49800Y-19785D03*
X49800Y-19035D03*
G54D19*
X46680Y-10410D03*
X47430Y-10410D03*
X41425Y-13300D03*
X42175Y-13300D03*
X52385Y-22090D03*
X51635Y-22090D03*
G54D18*
X41100Y-15100D03*
X41100Y-14350D03*
X41925Y-15100D03*
X41925Y-14350D03*
X43000Y-11675D03*
X43000Y-10925D03*
X55705Y-19405D03*
X55705Y-18655D03*
X40000Y-10925D03*
X40000Y-11675D03*
X41000Y-10925D03*
X41000Y-11675D03*
G54D10*
G36*
X51104Y-09197D02*
X51493Y-09586D01*
X51246Y-09833D01*
X50857Y-09444D01*
X51104Y-09197D01*
X51104Y-09197D01*
G37*
G36*
X50574Y-09727D02*
X50963Y-10116D01*
X50716Y-10363D01*
X50327Y-09974D01*
X50574Y-09727D01*
X50574Y-09727D01*
G37*
G36*
X52604Y-10697D02*
X52993Y-11086D01*
X52746Y-11333D01*
X52357Y-10944D01*
X52604Y-10697D01*
X52604Y-10697D01*
G37*
G36*
X52074Y-11227D02*
X52463Y-11616D01*
X52216Y-11863D01*
X51827Y-11474D01*
X52074Y-11227D01*
X52074Y-11227D01*
G37*
G36*
X49381Y-18343D02*
X48992Y-17954D01*
X49239Y-17707D01*
X49628Y-18096D01*
X49381Y-18343D01*
X49381Y-18343D01*
G37*
G36*
X49911Y-17813D02*
X49522Y-17424D01*
X49769Y-17177D01*
X50158Y-17566D01*
X49911Y-17813D01*
X49911Y-17813D01*
G37*
G54D19*
X52710Y-14745D03*
X53460Y-14745D03*
G54D10*
G36*
X46917Y-18706D02*
X47306Y-18317D01*
X47553Y-18564D01*
X47164Y-18953D01*
X46917Y-18706D01*
X46917Y-18706D01*
G37*
G36*
X47447Y-19236D02*
X47836Y-18847D01*
X48083Y-19094D01*
X47694Y-19483D01*
X47447Y-19236D01*
X47447Y-19236D01*
G37*
G36*
X44394Y-17407D02*
X44783Y-17796D01*
X44536Y-18043D01*
X44147Y-17654D01*
X44394Y-17407D01*
X44394Y-17407D01*
G37*
G36*
X43864Y-17937D02*
X44253Y-18326D01*
X44006Y-18573D01*
X43617Y-18184D01*
X43864Y-17937D01*
X43864Y-17937D01*
G37*
G54D19*
X35220Y-23190D03*
X35970Y-23190D03*
X35285Y-21580D03*
X36035Y-21580D03*
G54D18*
X42795Y-14355D03*
X42795Y-15105D03*
X40325Y-14350D03*
X40325Y-15100D03*
G54D20*
X64900Y-07000D03*
G54D21*
X63900Y-07000D03*
X62900Y-07000D03*
X61900Y-07000D03*
G54D20*
X55500Y-24900D03*
G54D21*
X56500Y-24900D03*
X57500Y-24900D03*
X58500Y-24900D03*
G54D20*
X58750Y-07000D03*
G54D21*
X57750Y-07000D03*
X56750Y-07000D03*
X55750Y-07000D03*
G54D20*
X61900Y-24900D03*
G54D21*
X62900Y-24900D03*
X63900Y-24900D03*
X64900Y-24900D03*
G54D20*
X34495Y-14875D03*
G54D21*
X34495Y-13875D03*
X34495Y-12875D03*
X34495Y-11875D03*
G54D20*
X34495Y-19320D03*
G54D21*
X34495Y-18320D03*
X34495Y-17320D03*
X34495Y-16320D03*
G54D20*
X45600Y-07000D03*
G54D21*
X44600Y-07000D03*
X43600Y-07000D03*
X42600Y-07000D03*
G54D20*
X36900Y-22700D03*
G54D21*
X36900Y-23700D03*
X36900Y-24700D03*
G54D20*
X42700Y-22700D03*
G54D21*
X42700Y-23700D03*
X42700Y-24700D03*
G54D20*
X40700Y-22700D03*
G54D21*
X40700Y-23700D03*
X40700Y-24700D03*
G54D20*
X38800Y-22700D03*
G54D21*
X38800Y-23700D03*
X38800Y-24700D03*
G54D20*
X37040Y-21055D03*
G54D21*
X38040Y-21055D03*
X39040Y-21055D03*
G54D20*
X62150Y-12500D03*
G54D21*
X63150Y-12500D03*
G54D20*
X34410Y-20575D03*
G54D21*
X34410Y-21575D03*
G54D20*
X41250Y-07000D03*
G54D21*
X40250Y-07000D03*
G54D10*
G36*
X45364Y-10497D02*
X45753Y-10886D01*
X45364Y-11275D01*
X44975Y-10886D01*
X45364Y-10497D01*
X45364Y-10497D01*
G37*
G54D21*
X44656Y-11594D03*
G54D20*
X51100Y-24900D03*
G54D21*
X52100Y-24900D03*
G54D20*
X34365Y-23240D03*
G54D21*
X34365Y-24240D03*
G54D20*
X55750Y-23750D03*
G54D21*
X56750Y-23750D03*
G54D20*
X62150Y-21250D03*
G54D21*
X63150Y-21250D03*
G54D20*
X55750Y-12500D03*
G54D21*
X56750Y-12500D03*
G54D20*
X55750Y-21250D03*
G54D21*
X56750Y-21250D03*
G54D20*
X62150Y-22500D03*
G54D21*
X63150Y-22500D03*
G54D20*
X62150Y-14000D03*
G54D21*
X63150Y-14000D03*
G54D20*
X55750Y-14000D03*
G54D21*
X56750Y-14000D03*
G54D20*
X55750Y-22500D03*
G54D21*
X56750Y-22500D03*
G54D20*
X62150Y-23750D03*
G54D21*
X63150Y-23750D03*
G54D20*
X62150Y-15500D03*
G54D21*
X63150Y-15500D03*
G54D20*
X55750Y-15500D03*
G54D21*
X56750Y-15500D03*
G54D20*
X53150Y-16810D03*
G54D22*
X40600Y-19480D03*
X43350Y-19480D03*
X40600Y-21280D03*
X43400Y-21280D03*
G54D17*
X38870Y-18880D03*
G54D11*
X37870Y-18880D03*
X38870Y-17880D03*
X37870Y-17880D03*
X38870Y-16880D03*
X37870Y-16880D03*
X38870Y-15880D03*
X37870Y-15880D03*
X38870Y-14880D03*
X37870Y-14880D03*
X38870Y-13880D03*
X37870Y-13880D03*
X38870Y-12880D03*
X37870Y-12880D03*
X38870Y-11880D03*
X37870Y-11880D03*
G54D17*
X53100Y-07000D03*
G54D11*
X53100Y-08000D03*
X52100Y-07000D03*
X52100Y-08000D03*
X51100Y-07000D03*
X51100Y-08000D03*
X50100Y-07000D03*
X50100Y-08000D03*
X49100Y-07000D03*
X49100Y-08000D03*
X48100Y-07000D03*
X48100Y-08000D03*
X47100Y-07000D03*
X47100Y-08000D03*
G54D17*
X51795Y-18515D03*
G54D11*
X52795Y-18515D03*
X51795Y-19515D03*
X52795Y-19515D03*
X51795Y-20515D03*
X52795Y-20515D03*
G54D17*
X44600Y-08400D03*
G54D11*
X45600Y-08400D03*
X44600Y-09400D03*
X45600Y-09400D03*
G54D14*
X51067Y-12587D03*
X49653Y-11173D03*
G54D15*
X36760Y-09820D03*
G54D14*
X36760Y-07820D03*
G54D23*
X64650Y-16750D03*
G54D24*
X63650Y-16750D03*
G54D23*
X58250Y-16750D03*
G54D24*
X57250Y-16750D03*
G54D23*
X64700Y-08500D03*
G54D24*
X63700Y-08500D03*
G54D23*
X58250Y-08500D03*
G54D24*
X57250Y-08500D03*
G54D10*
G36*
X44831Y-19398D02*
X44442Y-19009D01*
X44689Y-18762D01*
X45078Y-19151D01*
X44831Y-19398D01*
X44831Y-19398D01*
G37*
G36*
X45361Y-18868D02*
X44972Y-18479D01*
X45219Y-18232D01*
X45608Y-18621D01*
X45361Y-18868D01*
X45361Y-18868D01*
G37*
G54D25*
X44864Y-18087D03*
X42782Y-18724D03*
X39635Y-18127D03*
X46086Y-16265D03*
X43016Y-18150D03*
X43202Y-15605D03*
X45696Y-14067D03*
X44619Y-23563D03*
X52630Y-17606D03*
X51763Y-15351D03*
X46248Y-20565D03*
X46742Y-16377D03*
X50500Y-12825D03*
X50625Y-13475D03*
X51125Y-13975D03*
X39850Y-20900D03*
X37525Y-21750D03*
X39600Y-20225D03*
X51270Y-22847D03*
X48845Y-14004D03*
X48126Y-18760D03*
X49669Y-18442D03*
X55165Y-09715D03*
X61558Y-18627D03*
X53775Y-10950D03*
X61442Y-09934D03*
X46778Y-16964D03*
X53199Y-15287D03*
X47550Y-21700D03*
X35970Y-22385D03*
X40974Y-13300D03*
X51485Y-09204D03*
X39140Y-10387D03*
X53800Y-14350D03*
X52972Y-10680D03*
X43602Y-18543D03*
X44449Y-19402D03*
X39750Y-13850D03*
X39457Y-11814D03*
X46850Y-20025D03*
X52600Y-08600D03*
X44425Y-20025D03*
X35150Y-18750D03*
X59500Y-24850D03*
X44947Y-12643D03*
X50861Y-17922D03*
X48611Y-15905D03*
X45724Y-11867D03*
X47890Y-13803D03*
X46561Y-13487D03*
X47317Y-13390D03*
X47270Y-12916D03*
X46957Y-11175D03*
X50173Y-13536D03*
X48203Y-14112D03*
X51617Y-15845D03*
X46911Y-12076D03*
X48284Y-15600D03*
X47473Y-18011D03*
X49980Y-11992D03*
X48078Y-16341D03*
X47196Y-14693D03*
X47977Y-18144D03*
X44020Y-15989D03*
X43984Y-23094D03*
X48972Y-15101D03*
X44440Y-12589D03*
X50705Y-11409D03*
X44323Y-13708D03*
X51322Y-15276D03*
X46982Y-20842D03*
G54D26*
X40500Y-08400D02*
X40500Y-09100D01*
X64650Y-16750D02*
X65900Y-16750D01*
G54D27*
X40000Y-10925D02*
X39596Y-10925D01*
X38870Y-11880D02*
X39596Y-11154D01*
X39596Y-11154D02*
X39596Y-10925D01*
G54D26*
X41250Y-07000D02*
X41200Y-07000D01*
X41200Y-07000D02*
X40500Y-07700D01*
X40500Y-07700D02*
X40500Y-08400D01*
X52300Y-06800D02*
X52100Y-07000D01*
X58250Y-08500D02*
X59500Y-08500D01*
X52300Y-06434D02*
X52666Y-06434D01*
X60100Y-16100D02*
X64000Y-16100D01*
X64000Y-16100D02*
X64650Y-16750D01*
X42600Y-07000D02*
X41250Y-07000D01*
X44600Y-09400D02*
X42600Y-07400D01*
X42600Y-07400D02*
X42600Y-07000D01*
X51349Y-06434D02*
X52100Y-07000D01*
X51900Y-06434D02*
X51900Y-06800D01*
X60300Y-07800D02*
X64000Y-07800D01*
X65900Y-16750D02*
X66050Y-16750D01*
X66050Y-16750D02*
X66600Y-16200D01*
X51900Y-06434D02*
X52300Y-06434D01*
X66600Y-16200D02*
X66600Y-09200D01*
X59500Y-16750D02*
X58250Y-16750D01*
X45600Y-09400D02*
X44600Y-09400D01*
X64000Y-07800D02*
X64700Y-08500D01*
X59500Y-16750D02*
X59500Y-16700D01*
X59500Y-16700D02*
X60100Y-16100D01*
X42600Y-07000D02*
X42600Y-06700D01*
X42600Y-06700D02*
X42900Y-06400D01*
X42900Y-06400D02*
X51349Y-06434D01*
X59500Y-08500D02*
X59600Y-08500D01*
X59600Y-08500D02*
X60300Y-07800D01*
X51900Y-06800D02*
X52100Y-07000D01*
X51349Y-06434D02*
X51900Y-06434D01*
X52666Y-06434D02*
X52100Y-07000D01*
X52700Y-06400D02*
X52666Y-06434D01*
X52666Y-06434D02*
X52700Y-06400D01*
X58250Y-08500D02*
X58250Y-08250D01*
X58250Y-08250D02*
X57700Y-07700D01*
X57700Y-07700D02*
X55115Y-07456D01*
X55115Y-07456D02*
X53800Y-06400D01*
X53800Y-06400D02*
X52700Y-06400D01*
X64700Y-08500D02*
X65900Y-08500D01*
X66600Y-09200D02*
X65900Y-08500D01*
X52100Y-07000D02*
X52100Y-06600D01*
X52300Y-06434D02*
X52300Y-06800D01*
G54D27*
X42795Y-14355D02*
X42800Y-13975D01*
X38870Y-12880D02*
X40075Y-13500D01*
X40075Y-13500D02*
X42800Y-13975D01*
X40500Y-08400D02*
X40000Y-08900D01*
X40000Y-08900D02*
X40000Y-10925D01*
X37792Y-20531D02*
X37791Y-20531D01*
X37848Y-20651D02*
X37848Y-20587D01*
X36636Y-21055D02*
X36636Y-20822D01*
X36080Y-20570D02*
X36384Y-20570D01*
X39340Y-14350D02*
X38870Y-13880D01*
X40325Y-14350D02*
X39340Y-14350D01*
X42607Y-20108D02*
X42128Y-20587D01*
X36636Y-20822D02*
X36384Y-20570D01*
X47222Y-16104D02*
X47222Y-17051D01*
X37444Y-21055D02*
X37848Y-20651D01*
X37272Y-13446D02*
X38436Y-13446D01*
X37791Y-19409D02*
X37250Y-18868D01*
X56750Y-14500D02*
X59500Y-14500D01*
X38436Y-13446D02*
X38870Y-13880D01*
X62650Y-14999D02*
X63149Y-14500D01*
X63149Y-14500D02*
X63150Y-14500D01*
X45949Y-15601D02*
X46345Y-15601D01*
X37791Y-20531D02*
X37791Y-19409D01*
X47150Y-21850D02*
X46315Y-22855D01*
X63150Y-14500D02*
X65900Y-14500D01*
X41000Y-10925D02*
X41000Y-11229D01*
X41500Y-10121D02*
X41000Y-10621D01*
X41000Y-10925D02*
X41000Y-10621D01*
X42775Y-20400D02*
X46300Y-20250D01*
X37250Y-13468D02*
X37272Y-13446D01*
X63150Y-14500D02*
X63150Y-14000D01*
X42607Y-19331D02*
X42607Y-20108D01*
X40275Y-14350D02*
X39345Y-14355D01*
X42128Y-20587D02*
X37848Y-20587D01*
X47350Y-20600D02*
X47150Y-21850D01*
X46300Y-20250D02*
X47350Y-20600D01*
X45932Y-15584D02*
X45949Y-15601D01*
X47222Y-17051D02*
X46642Y-17631D01*
X37040Y-21055D02*
X37444Y-21055D01*
X39345Y-14355D02*
X38870Y-13880D01*
X50017Y-13146D02*
X49401Y-13762D01*
X48800Y-16658D02*
X48497Y-16355D01*
X45278Y-15659D02*
X45278Y-15660D01*
X46504Y-15760D02*
X46632Y-15760D01*
X46345Y-15601D02*
X46504Y-15760D01*
X47801Y-17051D02*
X47222Y-17051D01*
X48104Y-17354D02*
X47801Y-17051D01*
X48497Y-16355D02*
X47801Y-17051D01*
X46632Y-15760D02*
X46677Y-15805D01*
X46708Y-15805D02*
X46806Y-15903D01*
X45334Y-15660D02*
X45410Y-15584D01*
X45410Y-15584D02*
X45932Y-15584D01*
X52710Y-14745D02*
X52406Y-14745D01*
X56750Y-14000D02*
X56750Y-14500D01*
X46677Y-15805D02*
X46708Y-15805D01*
X45278Y-15660D02*
X45334Y-15660D01*
X54900Y-14000D02*
X53455Y-14000D01*
X56750Y-14500D02*
X55400Y-14500D01*
X37250Y-18868D02*
X37250Y-13468D01*
X42607Y-20108D02*
X42775Y-20400D01*
X56750Y-14500D02*
X56750Y-15500D01*
X53014Y-14441D02*
X53014Y-14745D01*
X37848Y-20587D02*
X37792Y-20531D01*
X50807Y-13146D02*
X50017Y-13146D01*
X52406Y-14745D02*
X50807Y-13146D01*
X52710Y-14745D02*
X53014Y-14745D01*
X46281Y-10410D02*
X46376Y-10410D01*
X46090Y-10601D02*
X46281Y-10410D01*
X46799Y-18394D02*
X46339Y-17934D01*
X46806Y-15903D02*
X47021Y-15903D01*
X46281Y-10410D02*
X46281Y-08085D01*
X56750Y-22500D02*
X56750Y-21250D01*
X53455Y-14000D02*
X53014Y-14441D01*
X55400Y-14500D02*
X54900Y-14000D01*
X47021Y-15903D02*
X47222Y-16104D01*
X44251Y-17939D02*
X44465Y-18154D01*
X45649Y-10601D02*
X46090Y-10601D01*
X46281Y-08085D02*
X45600Y-07404D01*
X45600Y-07000D02*
X45600Y-07404D01*
X36356Y-24163D02*
X36356Y-21335D01*
X37040Y-21055D02*
X36636Y-21055D01*
X35950Y-24265D02*
X36254Y-24265D01*
X43000Y-11675D02*
X43000Y-11523D01*
X62650Y-14999D02*
X59999Y-14999D01*
X44465Y-18298D02*
X43913Y-18850D01*
X43088Y-18850D02*
X42607Y-19331D01*
X44581Y-18414D02*
X45304Y-18414D01*
X36356Y-21335D02*
X36636Y-21055D01*
X44465Y-18298D02*
X44581Y-18414D01*
X57000Y-22750D02*
X56750Y-22500D01*
X43913Y-18850D02*
X43088Y-18850D01*
X43316Y-11523D02*
X43953Y-10886D01*
X63150Y-22500D02*
X65650Y-22500D01*
X45364Y-10886D02*
X45649Y-10601D01*
X43000Y-11523D02*
X43316Y-11523D01*
X41000Y-11229D02*
X42706Y-11229D01*
X45290Y-18428D02*
X45304Y-18414D01*
X65650Y-22500D02*
X65900Y-22750D01*
X46680Y-10410D02*
X46376Y-10410D01*
X44465Y-17725D02*
X44251Y-17939D01*
X43953Y-10886D02*
X45364Y-10886D01*
X63150Y-23750D02*
X62579Y-23179D01*
X44465Y-18154D02*
X44465Y-18298D01*
X45290Y-18550D02*
X45290Y-18428D01*
X44974Y-15963D02*
X45278Y-15659D01*
X42706Y-11229D02*
X43000Y-11523D01*
X41500Y-09100D02*
X41500Y-10121D01*
X57000Y-23500D02*
X56750Y-23750D01*
X57000Y-22750D02*
X57000Y-23500D01*
X59500Y-22750D02*
X57000Y-22750D01*
X45304Y-18414D02*
X46039Y-17679D01*
X46800Y-18394D02*
X46799Y-18394D01*
X63150Y-15500D02*
X62650Y-15000D01*
X59999Y-14999D02*
X59500Y-14500D01*
X46827Y-18421D02*
X46800Y-18394D01*
X47020Y-18421D02*
X46827Y-18421D01*
X59929Y-23179D02*
X59500Y-22750D01*
X47021Y-18420D02*
X47020Y-18421D01*
X46642Y-17631D02*
X46339Y-17934D01*
X47235Y-18635D02*
X47021Y-18420D01*
X56750Y-12500D02*
X56750Y-09744D01*
X56750Y-09744D02*
X54702Y-08047D01*
X54702Y-08047D02*
X53100Y-08000D01*
X46039Y-17679D02*
X46365Y-17353D01*
X36254Y-24265D02*
X36356Y-24163D01*
X62650Y-15000D02*
X62650Y-14999D01*
X62579Y-23179D02*
X59929Y-23179D01*
X37870Y-18880D02*
X38300Y-19310D01*
X38300Y-19310D02*
X39704Y-19310D01*
X39704Y-19310D02*
X40290Y-18724D01*
X40290Y-18724D02*
X42782Y-18724D01*
X45351Y-18087D02*
X45921Y-17517D01*
X44864Y-18087D02*
X45351Y-18087D01*
X46225Y-17213D02*
X45921Y-17517D01*
X45515Y-17645D02*
X46086Y-17074D01*
X44854Y-17645D02*
X45515Y-17645D01*
X44449Y-17240D02*
X44854Y-17645D01*
X43820Y-17778D02*
X44358Y-17240D01*
X44358Y-17240D02*
X44449Y-17240D01*
X39984Y-17778D02*
X43820Y-17778D01*
X39635Y-18127D02*
X39984Y-17778D01*
X45579Y-17303D02*
X44898Y-17303D01*
X45947Y-16935D02*
X45579Y-17303D01*
X44287Y-17071D02*
X43749Y-17609D01*
X39147Y-17417D02*
X38407Y-17417D01*
X39339Y-17609D02*
X39147Y-17417D01*
X43749Y-17609D02*
X39339Y-17609D01*
X38407Y-17417D02*
X37870Y-16880D01*
X44666Y-17071D02*
X44287Y-17071D01*
X44898Y-17303D02*
X44666Y-17071D01*
X44936Y-17101D02*
X44737Y-16902D01*
X45506Y-17101D02*
X44936Y-17101D01*
X45809Y-16798D02*
X45506Y-17101D01*
X38375Y-16427D02*
X37870Y-15880D01*
X39125Y-16425D02*
X38375Y-16427D01*
X40068Y-17419D02*
X39125Y-16425D01*
X43699Y-17419D02*
X40068Y-17419D01*
X44216Y-16902D02*
X43699Y-17419D01*
X44737Y-16902D02*
X44216Y-16902D01*
X37870Y-14880D02*
X37438Y-15312D01*
X46063Y-16265D02*
X46086Y-16265D01*
X37591Y-18441D02*
X42384Y-18441D01*
X37438Y-18288D02*
X37591Y-18441D01*
X42384Y-18441D02*
X42675Y-18150D01*
X37438Y-15312D02*
X37438Y-18288D01*
X42675Y-18150D02*
X43016Y-18150D01*
X45670Y-16658D02*
X45973Y-16355D01*
X45973Y-16355D02*
X46063Y-16265D01*
X40362Y-16732D02*
X44828Y-16732D01*
X38436Y-15288D02*
X38558Y-15410D01*
X38558Y-15410D02*
X39040Y-15410D01*
X37870Y-13880D02*
X38436Y-14446D01*
X38436Y-14446D02*
X38436Y-15288D01*
X39040Y-15410D02*
X40362Y-16732D01*
X44952Y-16856D02*
X45194Y-16856D01*
X45194Y-16856D02*
X45531Y-16519D01*
X44828Y-16732D02*
X44952Y-16856D01*
X44143Y-16546D02*
X44949Y-16546D01*
X43202Y-15605D02*
X44143Y-16546D01*
X35330Y-20570D02*
X35026Y-20570D01*
X45392Y-16380D02*
X45088Y-16684D01*
X35330Y-20570D02*
X35330Y-20974D01*
X35285Y-21580D02*
X35285Y-21019D01*
X44949Y-16546D02*
X45088Y-16684D01*
X34410Y-20575D02*
X35021Y-20575D01*
X35021Y-20575D02*
X35026Y-20570D01*
X35285Y-21019D02*
X35330Y-20974D01*
X60385Y-24265D02*
X60900Y-23750D01*
X53836Y-24265D02*
X60385Y-24265D01*
X47809Y-24986D02*
X49172Y-23623D01*
X49172Y-23623D02*
X53194Y-23623D01*
X45374Y-14067D02*
X45069Y-13762D01*
X46042Y-24986D02*
X47809Y-24986D01*
X53194Y-23623D02*
X53836Y-24265D01*
X44619Y-23563D02*
X46042Y-24986D01*
X45696Y-14067D02*
X45374Y-14067D01*
X50016Y-14845D02*
X49387Y-14845D01*
X46278Y-13874D02*
X46256Y-13852D01*
X46256Y-13852D02*
X46256Y-13279D01*
X59562Y-17281D02*
X55703Y-17311D01*
X60900Y-16750D02*
X59562Y-17281D01*
X55703Y-17311D02*
X54542Y-16150D01*
X51321Y-16150D02*
X50016Y-14845D01*
X49068Y-14526D02*
X48182Y-14526D01*
X49387Y-14845D02*
X49068Y-14526D01*
X48182Y-14526D02*
X47530Y-13874D01*
X47530Y-13874D02*
X46278Y-13874D01*
X54542Y-16150D02*
X51321Y-16150D01*
X46256Y-13279D02*
X45904Y-12927D01*
X44333Y-13280D02*
X44627Y-13574D01*
X44004Y-13578D02*
X44302Y-13280D01*
X52630Y-17606D02*
X52298Y-17606D01*
X48421Y-15066D02*
X47070Y-15066D01*
X49099Y-15409D02*
X48764Y-15409D01*
X44930Y-13901D02*
X44627Y-13598D01*
X44627Y-13574D02*
X44627Y-13598D01*
X52298Y-17606D02*
X49875Y-15183D01*
X44302Y-13280D02*
X44333Y-13280D01*
X46801Y-14797D02*
X44678Y-14797D01*
X49325Y-15183D02*
X49099Y-15409D01*
X49875Y-15183D02*
X49325Y-15183D01*
X47070Y-15066D02*
X46801Y-14797D01*
X48764Y-15409D02*
X48421Y-15066D01*
X44004Y-14123D02*
X44004Y-13578D01*
X44678Y-14797D02*
X44004Y-14123D01*
X50346Y-13840D02*
X51763Y-15257D01*
X49819Y-14180D02*
X50122Y-13877D01*
X44770Y-22043D02*
X46248Y-20565D01*
X51763Y-15257D02*
X51763Y-15351D01*
X50159Y-13840D02*
X50346Y-13840D01*
X37961Y-22043D02*
X44770Y-22043D01*
X50122Y-13877D02*
X50159Y-13840D01*
X36900Y-22700D02*
X37304Y-22700D01*
X37304Y-22700D02*
X37961Y-22043D01*
X35068Y-23190D02*
X34916Y-23190D01*
X45556Y-15937D02*
X45563Y-15945D01*
X35068Y-23190D02*
X35200Y-23322D01*
X45848Y-15945D02*
X45863Y-15960D01*
X35200Y-23322D02*
X35200Y-24265D01*
X45563Y-15945D02*
X45848Y-15945D01*
X34866Y-23240D02*
X34916Y-23190D01*
X46508Y-16143D02*
X46742Y-16377D01*
X46224Y-15960D02*
X46407Y-16143D01*
X34365Y-23240D02*
X34866Y-23240D01*
X45863Y-15960D02*
X46224Y-15960D01*
X46407Y-16143D02*
X46508Y-16143D01*
X45252Y-16241D02*
X45556Y-15937D01*
X35220Y-23190D02*
X35068Y-23190D01*
X46999Y-15235D02*
X48349Y-15235D01*
X38995Y-14880D02*
X39150Y-14725D01*
X48693Y-15579D02*
X49273Y-15579D01*
X49273Y-15579D02*
X49332Y-15520D01*
X43600Y-14725D02*
X43904Y-14994D01*
X43904Y-14994D02*
X46758Y-14994D01*
X48349Y-15235D02*
X48693Y-15579D01*
X49635Y-15823D02*
X49332Y-15520D01*
X46758Y-14994D02*
X46999Y-15235D01*
X39150Y-14725D02*
X43600Y-14725D01*
X38870Y-14880D02*
X38995Y-14880D01*
X50000Y-12875D02*
X50450Y-12875D01*
X50450Y-12875D02*
X50500Y-12825D01*
G54D28*
X50625Y-13475D02*
X51125Y-13975D01*
G54D27*
X49262Y-13624D02*
X49262Y-13613D01*
X45114Y-16102D02*
X45137Y-16102D01*
G54D28*
X39625Y-20200D02*
X39625Y-19755D01*
G54D27*
X46050Y-18775D02*
X45745Y-19080D01*
X49262Y-13613D02*
X50000Y-12875D01*
X46503Y-17491D02*
X46484Y-17491D01*
X45745Y-19080D02*
X44760Y-19080D01*
X46050Y-17925D02*
X46050Y-18775D01*
X46484Y-17491D02*
X46050Y-17925D01*
X37525Y-21750D02*
X37550Y-21725D01*
G54D28*
X37550Y-21725D02*
X39450Y-21725D01*
X39450Y-21725D02*
X39850Y-21325D01*
X39850Y-20900D02*
X39850Y-21325D01*
G54D27*
X61558Y-18627D02*
X61694Y-18627D01*
X46806Y-17188D02*
X46778Y-17160D01*
X47765Y-19165D02*
X48051Y-18879D01*
X40000Y-11675D02*
X41000Y-11675D01*
X52889Y-10763D02*
X52972Y-10680D01*
X49669Y-18442D02*
X49595Y-18368D01*
X49595Y-18368D02*
X49595Y-18311D01*
X46778Y-17160D02*
X46778Y-16964D01*
G54D28*
X34365Y-24240D02*
X34040Y-24240D01*
G54D27*
X39600Y-20225D02*
X39625Y-20200D01*
X52889Y-10800D02*
X52889Y-10763D01*
X55705Y-09745D02*
X55301Y-09745D01*
X51675Y-22624D02*
X51635Y-22584D01*
X41425Y-13300D02*
X41121Y-13300D01*
X62000Y-09825D02*
X61596Y-09825D01*
X61442Y-09934D02*
X61487Y-09934D01*
X46503Y-17491D02*
X46806Y-17188D01*
G54D28*
X62000Y-09150D02*
X61850Y-09000D01*
X62100Y-18550D02*
X61800Y-18250D01*
G54D29*
X62375Y-09825D02*
X63700Y-08500D01*
G54D28*
X59500Y-17750D02*
X59850Y-17750D01*
X33900Y-24100D02*
X33900Y-22085D01*
X62100Y-18625D02*
X62100Y-18550D01*
G54D27*
X52890Y-10800D02*
X52675Y-11015D01*
G54D28*
X53505Y-10680D02*
X52972Y-10680D01*
X53775Y-10950D02*
X53505Y-10680D01*
X60000Y-18250D02*
X59500Y-17750D01*
X61800Y-18250D02*
X60000Y-18250D01*
G54D27*
X53337Y-15149D02*
X53460Y-15149D01*
G54D28*
X59500Y-17750D02*
X56610Y-17750D01*
X56610Y-17750D02*
X55705Y-18655D01*
G54D27*
X48050Y-18836D02*
X48050Y-18879D01*
G54D29*
X57700Y-09500D02*
X57250Y-09050D01*
X57250Y-09050D02*
X57250Y-08500D01*
X59500Y-09500D02*
X57700Y-09500D01*
G54D27*
X49310Y-18025D02*
X49310Y-17749D01*
X49310Y-18025D02*
X49596Y-18310D01*
G54D29*
X62000Y-09825D02*
X62375Y-09825D01*
G54D28*
X33900Y-22085D02*
X34410Y-21575D01*
G54D29*
X38215Y-19755D02*
X39625Y-19755D01*
X39625Y-19755D02*
X40325Y-19755D01*
G54D27*
X48050Y-18879D02*
X48051Y-18879D01*
X48845Y-14004D02*
X48882Y-14004D01*
X53199Y-15287D02*
X53337Y-15149D01*
X45137Y-16102D02*
X45486Y-15753D01*
X47053Y-16689D02*
X46778Y-16964D01*
X55165Y-09715D02*
X55271Y-09715D01*
X38215Y-19755D02*
X38519Y-19755D01*
X38538Y-19774D02*
X38519Y-19755D01*
X38660Y-19774D02*
X38538Y-19774D01*
X48882Y-14004D02*
X49262Y-13624D01*
X61487Y-09934D02*
X61596Y-09825D01*
X49595Y-18311D02*
X49596Y-18310D01*
X46951Y-16072D02*
X47053Y-16174D01*
X46735Y-16072D02*
X46951Y-16072D01*
X46637Y-15974D02*
X46735Y-16072D01*
X46478Y-15974D02*
X46637Y-15974D01*
X46274Y-15770D02*
X46478Y-15974D01*
X45878Y-15770D02*
X46274Y-15770D01*
X45861Y-15753D02*
X45878Y-15770D01*
X45486Y-15753D02*
X45861Y-15753D01*
X49310Y-17749D02*
X48825Y-17264D01*
X61694Y-18627D02*
X61696Y-18625D01*
X51675Y-22950D02*
X51675Y-22624D01*
G54D26*
X35970Y-23190D02*
X35970Y-22385D01*
X35970Y-21645D02*
X36035Y-21580D01*
G54D27*
X51675Y-22950D02*
X51408Y-22950D01*
X51305Y-22847D02*
X51408Y-22950D01*
X51270Y-22847D02*
X51305Y-22847D01*
X48521Y-16937D02*
X48826Y-17241D01*
X48825Y-17242D02*
X48826Y-17241D01*
X48825Y-17264D02*
X48825Y-17242D01*
X62100Y-18625D02*
X61696Y-18625D01*
X42000Y-11675D02*
X41000Y-11675D01*
X47053Y-16174D02*
X47053Y-16689D01*
X48126Y-18760D02*
X48050Y-18836D01*
X41925Y-14350D02*
X41100Y-14350D01*
X51485Y-09204D02*
X51389Y-09300D01*
G54D26*
X35970Y-22385D02*
X35970Y-21645D01*
G54D27*
X53460Y-14745D02*
X53460Y-15149D01*
X55271Y-09715D02*
X55301Y-09745D01*
X39140Y-10935D02*
X39140Y-10387D01*
X51389Y-09300D02*
X51390Y-09300D01*
X41121Y-13300D02*
X40974Y-13300D01*
X51635Y-22584D02*
X51635Y-22090D01*
G54D28*
X53460Y-14690D02*
X53800Y-14350D01*
X53460Y-14745D02*
X53460Y-14690D01*
G54D27*
X52890Y-10800D02*
X52889Y-10800D01*
G54D28*
X51485Y-09204D02*
X51996Y-09204D01*
G54D27*
X40000Y-11675D02*
X39596Y-11675D01*
X51390Y-09300D02*
X51175Y-09515D01*
X43647Y-18543D02*
X43935Y-18255D01*
G54D29*
X40325Y-19755D02*
X40600Y-19480D01*
G54D27*
X41100Y-14350D02*
X41125Y-14325D01*
G54D28*
X51996Y-09204D02*
X52600Y-08600D01*
G54D27*
X44546Y-19305D02*
X44546Y-19295D01*
X44449Y-19402D02*
X44546Y-19305D01*
X44546Y-19295D02*
X44546Y-19294D01*
X44760Y-19080D02*
X44546Y-19294D01*
X43602Y-18543D02*
X43647Y-18543D01*
X41125Y-14325D02*
X41125Y-14025D01*
G54D28*
X44475Y-19975D02*
X46800Y-19975D01*
G54D27*
X41125Y-14025D02*
X40950Y-13850D01*
X40950Y-13850D02*
X39750Y-13850D01*
G54D28*
X61850Y-09000D02*
X60000Y-09000D01*
X59850Y-17750D02*
X60350Y-17250D01*
X49900Y-25400D02*
X58950Y-25400D01*
G54D27*
X39596Y-11675D02*
X39457Y-11814D01*
G54D29*
X33900Y-21150D02*
X33900Y-20200D01*
G54D28*
X46800Y-19975D02*
X46850Y-20025D01*
X44425Y-20025D02*
X44475Y-19975D01*
G54D29*
X34410Y-21575D02*
X34325Y-21575D01*
X35150Y-19750D02*
X35150Y-18750D01*
X35000Y-19900D02*
X35150Y-19750D01*
X34200Y-19900D02*
X35000Y-19900D01*
X33900Y-20200D02*
X34200Y-19900D01*
X34325Y-21575D02*
X33900Y-21150D01*
G54D30*
X35970Y-12400D02*
X35970Y-08610D01*
X35970Y-08610D02*
X36760Y-07820D01*
G54D28*
X53100Y-07000D02*
X54000Y-07000D01*
X65475Y-24400D02*
X60650Y-24400D01*
X55350Y-07900D02*
X55950Y-08500D01*
X54900Y-07900D02*
X55350Y-07900D01*
X54000Y-07000D02*
X54900Y-07900D01*
X62000Y-09825D02*
X62000Y-09150D01*
X60000Y-09000D02*
X59500Y-09500D01*
X65900Y-23750D02*
X65900Y-23975D01*
X49205Y-24705D02*
X49900Y-25400D01*
X34040Y-24240D02*
X33900Y-24100D01*
X58950Y-25400D02*
X59500Y-24850D01*
X47625Y-20425D02*
X47625Y-21625D01*
X47625Y-21625D02*
X47550Y-21700D01*
X55950Y-08500D02*
X57250Y-08500D01*
X65900Y-23975D02*
X65475Y-24400D01*
X47550Y-21700D02*
X47550Y-22620D01*
X47225Y-20025D02*
X47625Y-20425D01*
X63150Y-17250D02*
X63650Y-16750D01*
X60350Y-17250D02*
X63150Y-17250D01*
X46850Y-20025D02*
X47225Y-20025D01*
X47550Y-22620D02*
X47315Y-22855D01*
X49205Y-24705D02*
X49177Y-24705D01*
X60200Y-24850D02*
X59500Y-24850D01*
X60650Y-24400D02*
X60200Y-24850D01*
G54D27*
X37739Y-12310D02*
X36128Y-13921D01*
X44445Y-11137D02*
X44793Y-11137D01*
X45371Y-11715D02*
X45371Y-12672D01*
X38390Y-12310D02*
X37739Y-12310D01*
X38390Y-12309D02*
X43273Y-12309D01*
X44793Y-11137D02*
X45371Y-11715D01*
X45371Y-12672D02*
X45462Y-12763D01*
X35970Y-14400D02*
X35970Y-13921D01*
X38390Y-12309D02*
X38390Y-12310D01*
X45765Y-13066D02*
X45462Y-12763D01*
X36128Y-13921D02*
X35970Y-13921D01*
X38390Y-10935D02*
X38390Y-12309D01*
X43273Y-12309D02*
X44445Y-11137D01*
X45626Y-13206D02*
X45063Y-12643D01*
X37161Y-19755D02*
X37161Y-19752D01*
X45063Y-12643D02*
X44947Y-12643D01*
X35970Y-18820D02*
X36210Y-18820D01*
X36229Y-18820D02*
X36210Y-18820D01*
X37161Y-19752D02*
X36229Y-18820D01*
X37465Y-19755D02*
X37161Y-19755D01*
X51795Y-18515D02*
X51795Y-18086D01*
X49496Y-15963D02*
X49799Y-16266D01*
X50116Y-16266D02*
X49799Y-16266D01*
X51795Y-17945D02*
X50116Y-16266D01*
X51795Y-18086D02*
X51795Y-17945D01*
X51450Y-18954D02*
X51334Y-18838D01*
X52234Y-18954D02*
X51450Y-18954D01*
X52795Y-19515D02*
X52234Y-18954D01*
X51334Y-18838D02*
X51334Y-17724D01*
X50306Y-16696D02*
X49950Y-16696D01*
X51334Y-17724D02*
X50306Y-16696D01*
X49950Y-16696D02*
X49356Y-16102D01*
G54D26*
X38850Y-23650D02*
X40700Y-23650D01*
X42650Y-23650D02*
X42700Y-23700D01*
X36930Y-23670D02*
X38695Y-23670D01*
G54D27*
X40700Y-23700D02*
X40700Y-23650D01*
G54D26*
X38715Y-23650D02*
X38850Y-23650D01*
G54D27*
X38850Y-23650D02*
X38800Y-23700D01*
G54D26*
X40700Y-23650D02*
X42650Y-23650D01*
G54D27*
X36930Y-23670D02*
X36900Y-23700D01*
G54D26*
X36850Y-23670D02*
X36930Y-23670D01*
X38695Y-23670D02*
X38715Y-23650D01*
G54D27*
X35445Y-12875D02*
X35970Y-13400D01*
X34495Y-12875D02*
X35445Y-12875D01*
X35470Y-17320D02*
X35970Y-17820D01*
X34495Y-17320D02*
X35470Y-17320D01*
X55750Y-22500D02*
X55750Y-22096D01*
X55750Y-22096D02*
X55300Y-21646D01*
X55300Y-21646D02*
X55300Y-19550D01*
X55300Y-19550D02*
X54500Y-18750D01*
X62150Y-22096D02*
X61695Y-21641D01*
X61695Y-19545D02*
X60900Y-18750D01*
X62150Y-22500D02*
X62150Y-22096D01*
X61695Y-21641D02*
X61695Y-19545D01*
X49358Y-17495D02*
X48661Y-16798D01*
X49840Y-17495D02*
X49358Y-17495D01*
X45600Y-08400D02*
X44600Y-08400D01*
X43000Y-10925D02*
X42500Y-10925D01*
X42500Y-10925D02*
X42000Y-10925D01*
X42500Y-10925D02*
X42500Y-09100D01*
X52050Y-24850D02*
X52050Y-23950D01*
X52100Y-24900D02*
X52050Y-24850D01*
X49800Y-19035D02*
X49735Y-19035D01*
X49735Y-19035D02*
X48800Y-18100D01*
X48800Y-17800D02*
X48900Y-17700D01*
X48900Y-17700D02*
X48900Y-17593D01*
X48900Y-17593D02*
X48383Y-17076D01*
X48800Y-18100D02*
X48800Y-17800D01*
X48500Y-21085D02*
X49800Y-19785D01*
X47300Y-24300D02*
X48500Y-23100D01*
X48500Y-23100D02*
X48500Y-21085D01*
X46315Y-23642D02*
X46315Y-23815D01*
X46315Y-23815D02*
X46800Y-24300D01*
X46800Y-24300D02*
X47300Y-24300D01*
X48600Y-17572D02*
X48243Y-17215D01*
X48900Y-19025D02*
X48900Y-18500D01*
X48600Y-18200D02*
X48600Y-17572D01*
X48900Y-18500D02*
X48600Y-18200D01*
X47900Y-20775D02*
X48900Y-19775D01*
X47900Y-23000D02*
X47900Y-20775D01*
X47315Y-23585D02*
X47900Y-23000D01*
X47315Y-23642D02*
X47315Y-23585D01*
X48984Y-13316D02*
X49653Y-12647D01*
X48984Y-13345D02*
X48984Y-13316D01*
X49653Y-12647D02*
X49653Y-11173D01*
X49653Y-11173D02*
X49653Y-11037D01*
X49653Y-11037D02*
X50645Y-10045D01*
X51067Y-12587D02*
X51103Y-12587D01*
X51103Y-12587D02*
X52145Y-11545D01*
X50107Y-12500D02*
X49123Y-13484D01*
X50987Y-12587D02*
X50900Y-12500D01*
X50900Y-12500D02*
X50107Y-12500D01*
X51067Y-12587D02*
X50987Y-12587D01*
X50861Y-17922D02*
X49980Y-17041D01*
X49980Y-17041D02*
X49461Y-17041D01*
X49461Y-17041D02*
X48939Y-16519D01*
X41925Y-15100D02*
X42790Y-15100D01*
X42790Y-15100D02*
X42795Y-15105D01*
X44905Y-13320D02*
X44904Y-13321D01*
X42175Y-13300D02*
X42479Y-13300D01*
X45208Y-13624D02*
X44905Y-13320D01*
X44010Y-12240D02*
X44010Y-13072D01*
X44489Y-13072D02*
X44010Y-13072D01*
X44511Y-13094D02*
X44489Y-13072D01*
X44656Y-13094D02*
X44511Y-13094D01*
X44883Y-13321D02*
X44656Y-13094D01*
X44904Y-13321D02*
X44883Y-13321D01*
X42707Y-13072D02*
X42479Y-13300D01*
X44010Y-13072D02*
X42707Y-13072D01*
X44656Y-11594D02*
X44010Y-12240D01*
X40325Y-15100D02*
X41100Y-15100D01*
X55705Y-10647D02*
X55705Y-10799D01*
X55647Y-10647D02*
X55705Y-10647D01*
X54500Y-09500D02*
X55647Y-10647D01*
X55750Y-10844D02*
X55705Y-10799D01*
X55705Y-10495D02*
X55705Y-10647D01*
X55750Y-12500D02*
X55750Y-10844D01*
X55750Y-21250D02*
X55750Y-20846D01*
X55705Y-19405D02*
X55705Y-20801D01*
X55071Y-18321D02*
X54500Y-17750D01*
X55705Y-20801D02*
X55750Y-20846D01*
X55705Y-19101D02*
X55401Y-19101D01*
X55705Y-19405D02*
X55705Y-19101D01*
X55071Y-18771D02*
X55071Y-18321D01*
X55401Y-19101D02*
X55071Y-18771D01*
X62150Y-11029D02*
X62000Y-10879D01*
X62000Y-10840D02*
X61907Y-10840D01*
X61907Y-10840D02*
X60900Y-09833D01*
X60900Y-09833D02*
X60900Y-09500D01*
X62000Y-10840D02*
X62000Y-10879D01*
X62000Y-10575D02*
X62000Y-10840D01*
X62150Y-12500D02*
X62150Y-11029D01*
X62505Y-18970D02*
X62505Y-18342D01*
X61913Y-17750D02*
X60900Y-17750D01*
X62150Y-20846D02*
X62100Y-20796D01*
X62100Y-19071D02*
X62404Y-19071D01*
X62404Y-19071D02*
X62505Y-18970D01*
X62505Y-18342D02*
X61913Y-17750D01*
X62150Y-21250D02*
X62150Y-20846D01*
X62100Y-19375D02*
X62100Y-19071D01*
X62100Y-20796D02*
X62100Y-19375D01*
X48611Y-15913D02*
X48611Y-15905D01*
X49078Y-16380D02*
X48611Y-15913D01*
X48100Y-11577D02*
X46760Y-12917D01*
X48100Y-08000D02*
X48100Y-11577D01*
X46760Y-12917D02*
X46728Y-12917D01*
X46728Y-12917D02*
X46321Y-12510D01*
X46831Y-10871D02*
X46127Y-11575D01*
X46985Y-10737D02*
X46851Y-10871D01*
X46985Y-09210D02*
X46985Y-10737D01*
X47100Y-07000D02*
X46548Y-07552D01*
X46548Y-08773D02*
X46985Y-09210D01*
X46851Y-10871D02*
X46831Y-10871D01*
X46127Y-11575D02*
X46127Y-12098D01*
X46548Y-07552D02*
X46548Y-08773D01*
X46127Y-12098D02*
X45879Y-12346D01*
X46182Y-12649D02*
X45879Y-12346D01*
X45544Y-12289D02*
X46043Y-12788D01*
X45544Y-12047D02*
X45544Y-12289D01*
X45724Y-11867D02*
X45544Y-12047D01*
X48247Y-13803D02*
X47890Y-13803D01*
X48844Y-13206D02*
X48247Y-13803D01*
X48705Y-13066D02*
X48272Y-13499D01*
X48272Y-13499D02*
X47734Y-13499D01*
X47538Y-13695D02*
X46769Y-13695D01*
X46769Y-13695D02*
X46561Y-13487D01*
X47734Y-13499D02*
X47538Y-13695D01*
X48163Y-13330D02*
X47377Y-13330D01*
X48263Y-13230D02*
X48163Y-13330D01*
X47377Y-13330D02*
X47317Y-13390D01*
X48566Y-12927D02*
X48263Y-13230D01*
X48427Y-12788D02*
X48123Y-13092D01*
X48123Y-13092D02*
X48111Y-13081D01*
X47435Y-13081D02*
X47270Y-12916D01*
X48111Y-13081D02*
X47435Y-13081D01*
X51584Y-07484D02*
X51100Y-07000D01*
X51584Y-08180D02*
X51584Y-07484D01*
X49148Y-10616D02*
X51584Y-08180D01*
X49148Y-11789D02*
X49148Y-10616D01*
X48288Y-12649D02*
X49148Y-11789D01*
X48885Y-10311D02*
X50531Y-08665D01*
X48885Y-11774D02*
X48885Y-10311D01*
X50531Y-08665D02*
X50531Y-07431D01*
X50531Y-07431D02*
X50100Y-07000D01*
X48149Y-12510D02*
X48885Y-11774D01*
X48716Y-09384D02*
X50100Y-08000D01*
X48716Y-11664D02*
X48716Y-09384D01*
X48009Y-12371D02*
X48716Y-11664D01*
X48546Y-11555D02*
X47870Y-12231D01*
X48546Y-07554D02*
X48546Y-11555D01*
X49100Y-07000D02*
X48546Y-07554D01*
X46957Y-11175D02*
X46297Y-11835D01*
X46297Y-11835D02*
X46297Y-11928D01*
X46600Y-12231D02*
X46297Y-11928D01*
X47600Y-07500D02*
X47600Y-09922D01*
X48100Y-07000D02*
X47600Y-07500D01*
X47600Y-09922D02*
X47788Y-10110D01*
X47788Y-11650D02*
X46764Y-12674D01*
X47788Y-10110D02*
X47788Y-11650D01*
X46461Y-12371D02*
X46764Y-12674D01*
X50173Y-13536D02*
X49982Y-13727D01*
X49679Y-14041D02*
X49983Y-13737D01*
X49982Y-13727D02*
X49982Y-13737D01*
X49982Y-13737D02*
X49983Y-13737D01*
X48997Y-14695D02*
X48111Y-14695D01*
X49316Y-15014D02*
X48997Y-14695D01*
X49945Y-15014D02*
X49316Y-15014D01*
X52385Y-22090D02*
X52689Y-22090D01*
X48111Y-14695D02*
X47535Y-14119D01*
X47535Y-14119D02*
X46260Y-14119D01*
X52689Y-22090D02*
X53716Y-21063D01*
X52385Y-22292D02*
X52385Y-22451D01*
X52425Y-22787D02*
X52425Y-22624D01*
X52275Y-16701D02*
X51632Y-16701D01*
X51632Y-16701D02*
X49945Y-15014D01*
X52385Y-22188D02*
X52385Y-22286D01*
X53716Y-21063D02*
X53716Y-18142D01*
X52425Y-22787D02*
X52425Y-22950D01*
X52385Y-22188D02*
X52385Y-22090D01*
X46260Y-14119D02*
X45486Y-13345D01*
X53716Y-18142D02*
X52275Y-16701D01*
X52385Y-22451D02*
X52385Y-22584D01*
X52385Y-22584D02*
X52425Y-22624D01*
X52385Y-22292D02*
X52385Y-22286D01*
X49192Y-14309D02*
X48400Y-14309D01*
X49252Y-14249D02*
X49252Y-14189D01*
X48400Y-14309D02*
X48203Y-14112D01*
X49252Y-14249D02*
X49678Y-14675D01*
X46911Y-12076D02*
X47430Y-11557D01*
X49540Y-13901D02*
X49252Y-14189D01*
X48049Y-19470D02*
X47812Y-19707D01*
X47430Y-11557D02*
X47430Y-10410D01*
X43577Y-19707D02*
X43350Y-19480D01*
X51617Y-15844D02*
X51617Y-15845D01*
X51458Y-15844D02*
X51617Y-15844D01*
X50750Y-19470D02*
X48049Y-19470D01*
X49678Y-14675D02*
X50289Y-14675D01*
X51795Y-20515D02*
X50750Y-19470D01*
X47812Y-19707D02*
X43577Y-19707D01*
X49252Y-14249D02*
X49192Y-14309D01*
X50289Y-14675D02*
X51458Y-15844D01*
X51795Y-19515D02*
X51767Y-19515D01*
X49842Y-16865D02*
X49218Y-16241D01*
X50235Y-16865D02*
X49842Y-16865D01*
X51165Y-17795D02*
X50235Y-16865D01*
X51165Y-18913D02*
X51165Y-17795D01*
X51767Y-19515D02*
X51165Y-18913D01*
X46715Y-15191D02*
X46955Y-15431D01*
X44696Y-15684D02*
X45189Y-15191D01*
X48115Y-15431D02*
X48284Y-15600D01*
X46955Y-15431D02*
X48115Y-15431D01*
X45189Y-15191D02*
X46715Y-15191D01*
X47442Y-17359D02*
X47442Y-17980D01*
X49980Y-11696D02*
X49980Y-11992D01*
X47692Y-17221D02*
X47580Y-17221D01*
X47442Y-17980D02*
X47473Y-18011D01*
X54500Y-08500D02*
X53176Y-08500D01*
X53176Y-08500D02*
X49980Y-11696D01*
X47580Y-17221D02*
X47442Y-17359D01*
X47965Y-17494D02*
X47692Y-17221D01*
X44830Y-15828D02*
X45267Y-15391D01*
X47337Y-15600D02*
X48078Y-16341D01*
X46515Y-15391D02*
X46724Y-15600D01*
X45267Y-15391D02*
X46515Y-15391D01*
X46724Y-15600D02*
X47337Y-15600D01*
X41236Y-22295D02*
X42046Y-23105D01*
X46521Y-24478D02*
X47468Y-24478D01*
X44599Y-22556D02*
X46521Y-24478D01*
X42046Y-23105D02*
X43227Y-23105D01*
X43227Y-23105D02*
X43776Y-22556D01*
X38800Y-22700D02*
X39204Y-22700D01*
X47468Y-24478D02*
X51001Y-20945D01*
X43776Y-22556D02*
X44599Y-22556D01*
X39609Y-22295D02*
X41236Y-22295D01*
X39204Y-22700D02*
X39609Y-22295D01*
X53245Y-19935D02*
X53245Y-18151D01*
X52387Y-20081D02*
X53099Y-20081D01*
X52365Y-20103D02*
X52387Y-20081D01*
X53178Y-18084D02*
X52174Y-18084D01*
X51001Y-20945D02*
X52067Y-20945D01*
X52067Y-20945D02*
X52365Y-20647D01*
X52365Y-20647D02*
X52365Y-20103D01*
X52174Y-18084D02*
X49774Y-15684D01*
X53245Y-18151D02*
X53178Y-18084D01*
X53099Y-20081D02*
X53245Y-19935D01*
X46442Y-14626D02*
X47060Y-14626D01*
X44512Y-14319D02*
X44817Y-14623D01*
X44817Y-14623D02*
X46439Y-14623D01*
X46439Y-14623D02*
X46442Y-14626D01*
X47127Y-14693D02*
X47196Y-14693D01*
X47060Y-14626D02*
X47127Y-14693D01*
X47825Y-17633D02*
X48130Y-17937D01*
X47977Y-18090D02*
X48130Y-17937D01*
X47977Y-18144D02*
X47977Y-18090D01*
X44020Y-15989D02*
X44112Y-15989D01*
X53804Y-23446D02*
X54500Y-22750D01*
X49108Y-23446D02*
X53804Y-23446D01*
X47738Y-24816D02*
X49108Y-23446D01*
X46305Y-24816D02*
X47738Y-24816D01*
X44583Y-23094D02*
X46305Y-24816D01*
X43984Y-23094D02*
X44583Y-23094D01*
X44112Y-15989D02*
X44556Y-15545D01*
X47561Y-24647D02*
X51082Y-21126D01*
X41104Y-22700D02*
X41678Y-23274D01*
X41678Y-23274D02*
X43371Y-23274D01*
X53034Y-21126D02*
X53546Y-20614D01*
X43371Y-23274D02*
X43914Y-22731D01*
X43914Y-22731D02*
X44480Y-22731D01*
X44480Y-22731D02*
X46396Y-24647D01*
X51082Y-21126D02*
X53034Y-21126D01*
X52280Y-17911D02*
X49914Y-15545D01*
X40700Y-22700D02*
X41104Y-22700D01*
X53245Y-17911D02*
X52280Y-17911D01*
X46396Y-24647D02*
X47561Y-24647D01*
X53546Y-20614D02*
X53546Y-18212D01*
X53546Y-18212D02*
X53245Y-17911D01*
X45125Y-14375D02*
X47551Y-14375D01*
X48040Y-14864D02*
X48735Y-14864D01*
X47551Y-14375D02*
X48040Y-14864D01*
X48735Y-14864D02*
X48972Y-15101D01*
X44791Y-14041D02*
X45125Y-14375D01*
X44440Y-12589D02*
X45032Y-13181D01*
X45032Y-13181D02*
X45044Y-13181D01*
X45347Y-13484D02*
X45044Y-13181D01*
X44323Y-13708D02*
X44323Y-13852D01*
X60900Y-14500D02*
X60400Y-14000D01*
X52005Y-10971D02*
X51143Y-10971D01*
X54034Y-13000D02*
X52005Y-10971D01*
X51143Y-10971D02*
X50705Y-11409D01*
X56388Y-13000D02*
X54034Y-13000D01*
X57388Y-14000D02*
X56388Y-13000D01*
X60400Y-14000D02*
X57388Y-14000D01*
X44323Y-13852D02*
X44651Y-14180D01*
X46982Y-20842D02*
X45503Y-22321D01*
X45503Y-22321D02*
X43483Y-22321D01*
X43483Y-22321D02*
X43104Y-22700D01*
X50261Y-14016D02*
X51322Y-15077D01*
X51322Y-15077D02*
X51322Y-15276D01*
X42700Y-22700D02*
X43104Y-22700D01*
X49958Y-14319D02*
X50261Y-14016D01*
M02*
