G04 (created by PCBNEW-RS274X (2012-01-19 BZR 3256)-stable) date 5/05/2012 5:35:00 PM*
G01*
G70*
G90*
%MOIN*%
G04 Gerber Fmt 3.4, Leading zero omitted, Abs format*
%FSLAX34Y34*%
G04 APERTURE LIST*
%ADD10C,0.006000*%
%ADD11C,0.080000*%
%ADD12C,0.126300*%
%ADD13C,0.090000*%
%ADD14R,0.090000X0.090000*%
%ADD15R,0.080000X0.080000*%
%ADD16R,0.075000X0.075000*%
%ADD17C,0.075000*%
%ADD18C,0.120000*%
%ADD19R,0.085000X0.085000*%
%ADD20C,0.085000*%
G04 APERTURE END LIST*
G54D10*
G54D11*
X47315Y-22855D03*
X46315Y-22855D03*
X46315Y-23642D03*
X47315Y-23642D03*
G54D12*
X49177Y-24705D03*
X44453Y-24705D03*
G54D13*
X35970Y-12400D03*
X35970Y-13400D03*
G54D14*
X35970Y-14400D03*
G54D13*
X35970Y-16820D03*
X35970Y-17820D03*
G54D14*
X35970Y-18820D03*
G54D13*
X42500Y-09100D03*
X41500Y-09100D03*
G54D14*
X40500Y-09100D03*
G54D15*
X59500Y-15500D03*
G54D11*
X59500Y-14500D03*
X59500Y-13500D03*
X59500Y-12500D03*
X59500Y-11500D03*
X59500Y-10500D03*
G54D15*
X59500Y-09500D03*
G54D11*
X59500Y-08500D03*
X54500Y-08500D03*
X54500Y-09500D03*
X54500Y-10500D03*
X54500Y-11500D03*
X54500Y-12500D03*
X54500Y-13500D03*
X54500Y-14500D03*
X54500Y-15500D03*
G54D15*
X65900Y-15500D03*
G54D11*
X65900Y-14500D03*
X65900Y-13500D03*
X65900Y-12500D03*
X65900Y-11500D03*
X65900Y-10500D03*
G54D15*
X65900Y-09500D03*
G54D11*
X65900Y-08500D03*
X60900Y-08500D03*
X60900Y-09500D03*
X60900Y-10500D03*
X60900Y-11500D03*
X60900Y-12500D03*
X60900Y-13500D03*
X60900Y-14500D03*
X60900Y-15500D03*
G54D15*
X59500Y-23750D03*
G54D11*
X59500Y-22750D03*
X59500Y-21750D03*
X59500Y-20750D03*
X59500Y-19750D03*
X59500Y-18750D03*
G54D15*
X59500Y-17750D03*
G54D11*
X59500Y-16750D03*
X54500Y-16750D03*
X54500Y-17750D03*
X54500Y-18750D03*
X54500Y-19750D03*
X54500Y-20750D03*
X54500Y-21750D03*
X54500Y-22750D03*
X54500Y-23750D03*
G54D15*
X65900Y-23750D03*
G54D11*
X65900Y-22750D03*
X65900Y-21750D03*
X65900Y-20750D03*
X65900Y-19750D03*
X65900Y-18750D03*
G54D15*
X65900Y-17750D03*
G54D11*
X65900Y-16750D03*
X60900Y-16750D03*
X60900Y-17750D03*
X60900Y-18750D03*
X60900Y-19750D03*
X60900Y-20750D03*
X60900Y-21750D03*
X60900Y-22750D03*
X60900Y-23750D03*
G54D16*
X64900Y-07000D03*
G54D17*
X63900Y-07000D03*
X62900Y-07000D03*
X61900Y-07000D03*
G54D16*
X55500Y-24900D03*
G54D17*
X56500Y-24900D03*
X57500Y-24900D03*
X58500Y-24900D03*
G54D16*
X58750Y-07000D03*
G54D17*
X57750Y-07000D03*
X56750Y-07000D03*
X55750Y-07000D03*
G54D16*
X61900Y-24900D03*
G54D17*
X62900Y-24900D03*
X63900Y-24900D03*
X64900Y-24900D03*
G54D16*
X34495Y-14875D03*
G54D17*
X34495Y-13875D03*
X34495Y-12875D03*
X34495Y-11875D03*
G54D16*
X34495Y-19320D03*
G54D17*
X34495Y-18320D03*
X34495Y-17320D03*
X34495Y-16320D03*
G54D16*
X45600Y-07000D03*
G54D17*
X44600Y-07000D03*
X43600Y-07000D03*
X42600Y-07000D03*
G54D16*
X36900Y-22700D03*
G54D17*
X36900Y-23700D03*
X36900Y-24700D03*
G54D16*
X42700Y-22700D03*
G54D17*
X42700Y-23700D03*
X42700Y-24700D03*
G54D16*
X40700Y-22700D03*
G54D17*
X40700Y-23700D03*
X40700Y-24700D03*
G54D16*
X38800Y-22700D03*
G54D17*
X38800Y-23700D03*
X38800Y-24700D03*
G54D16*
X37040Y-21055D03*
G54D17*
X38040Y-21055D03*
X39040Y-21055D03*
G54D16*
X62150Y-12500D03*
G54D17*
X63150Y-12500D03*
G54D16*
X34410Y-20575D03*
G54D17*
X34410Y-21575D03*
G54D16*
X41250Y-07000D03*
G54D17*
X40250Y-07000D03*
G54D10*
G36*
X45364Y-10356D02*
X45894Y-10886D01*
X45364Y-11416D01*
X44834Y-10886D01*
X45364Y-10356D01*
X45364Y-10356D01*
G37*
G54D17*
X44656Y-11594D03*
G54D16*
X51100Y-24900D03*
G54D17*
X52100Y-24900D03*
G54D16*
X34365Y-23240D03*
G54D17*
X34365Y-24240D03*
G54D16*
X55750Y-23750D03*
G54D17*
X56750Y-23750D03*
G54D16*
X62150Y-21250D03*
G54D17*
X63150Y-21250D03*
G54D16*
X55750Y-12500D03*
G54D17*
X56750Y-12500D03*
G54D16*
X55750Y-21250D03*
G54D17*
X56750Y-21250D03*
G54D16*
X62150Y-22500D03*
G54D17*
X63150Y-22500D03*
G54D16*
X62150Y-14000D03*
G54D17*
X63150Y-14000D03*
G54D16*
X55750Y-14000D03*
G54D17*
X56750Y-14000D03*
G54D16*
X55750Y-22500D03*
G54D17*
X56750Y-22500D03*
G54D16*
X62150Y-23750D03*
G54D17*
X63150Y-23750D03*
G54D16*
X62150Y-15500D03*
G54D17*
X63150Y-15500D03*
G54D16*
X55750Y-15500D03*
G54D17*
X56750Y-15500D03*
G54D16*
X53150Y-16810D03*
G54D18*
X40600Y-19480D03*
X43350Y-19480D03*
X40600Y-21280D03*
X43400Y-21280D03*
G54D15*
X38870Y-18880D03*
G54D11*
X37870Y-18880D03*
X38870Y-17880D03*
X37870Y-17880D03*
X38870Y-16880D03*
X37870Y-16880D03*
X38870Y-15880D03*
X37870Y-15880D03*
X38870Y-14880D03*
X37870Y-14880D03*
X38870Y-13880D03*
X37870Y-13880D03*
X38870Y-12880D03*
X37870Y-12880D03*
X38870Y-11880D03*
X37870Y-11880D03*
G54D15*
X53100Y-07000D03*
G54D11*
X53100Y-08000D03*
X52100Y-07000D03*
X52100Y-08000D03*
X51100Y-07000D03*
X51100Y-08000D03*
X50100Y-07000D03*
X50100Y-08000D03*
X49100Y-07000D03*
X49100Y-08000D03*
X48100Y-07000D03*
X48100Y-08000D03*
X47100Y-07000D03*
X47100Y-08000D03*
G54D15*
X51795Y-18515D03*
G54D11*
X52795Y-18515D03*
X51795Y-19515D03*
X52795Y-19515D03*
X51795Y-20515D03*
X52795Y-20515D03*
G54D15*
X44600Y-08400D03*
G54D11*
X45600Y-08400D03*
X44600Y-09400D03*
X45600Y-09400D03*
G54D13*
X51067Y-12587D03*
X49653Y-11173D03*
G54D14*
X36760Y-09820D03*
G54D13*
X36760Y-07820D03*
G54D19*
X64650Y-16750D03*
G54D20*
X63650Y-16750D03*
G54D19*
X58250Y-16750D03*
G54D20*
X57250Y-16750D03*
G54D19*
X64700Y-08500D03*
G54D20*
X63700Y-08500D03*
G54D19*
X58250Y-08500D03*
G54D20*
X57250Y-08500D03*
M02*
